<svg xmlns="http://www.w3.org/2000/svg" viewBox="0 0 40 40"><defs><style>.cls-1{fill:#006837;}.cls-2{fill:#fff;}</style></defs><g id="Layer_2" data-name="Layer 2"><g id="Layer_27_copy_52" data-name="Layer 27 copy 52"><rect class="cls-1" width="40" height="40"/><path class="cls-2" d="M31,14.14c-.31,0-7.6,1.1-10.49,6-1.4,2.36-1.51,5.19-.34,8.43-.89,1.52-1.63,2.89-2.22,4,1.26-6.79,2.44-21.43-8.75-28.39L8.61,3.8l-.06.67c0,.15-1.18,14.58,9.35,19.83a44.73,44.73,0,0,1-1.58,11.61l.39.13h0l.39.16a74.25,74.25,0,0,1,3.8-7.29c9.65-2.55,10.55-14.21,10.56-14.33l0-.51Z"/></g></g></svg>