<svg xmlns="http://www.w3.org/2000/svg" viewBox="0 0 40 40"><defs><style>.cls-1{fill:#534741;}.cls-2{fill:#fff;}</style></defs><g id="Layer_2" data-name="Layer 2"><g id="Layer_27_copy_52" data-name="Layer 27 copy 52"><rect class="cls-1" width="40" height="40"/><path class="cls-2" d="M25.67,12.82C18.41,14,19.19,18.06,20,21.11s9.09,2.73,12.72,1.64S32.93,11.62,25.67,12.82Z"/><path class="cls-2" d="M18.85,11.88c-5.62,0-6.77.78-12.06,8.88s13.05,8.09,18,6.6S24.46,11.88,18.85,11.88Z"/><path class="cls-1" d="M17.66,28.61C13,28.61,7.83,27.83,6,25.4c-1-1.35-.9-3,.35-4.92,5.34-8.16,6.62-9.1,12.48-9.1,4.09,0,7.65,6.42,8.29,10.84.45,3-.36,5.07-2.2,5.62A29.22,29.22,0,0,1,17.66,28.61Zm1.19-16.23c-5.31,0-6.31.48-11.64,8.65-1,1.54-1.14,2.78-.39,3.77C9.34,28.18,20.9,28,24.65,26.88c1.87-.56,1.68-3.34,1.51-4.51C25.49,17.84,22.08,12.38,18.85,12.38Z"/></g></g></svg>