<svg xmlns="http://www.w3.org/2000/svg" viewBox="0 0 22 22"><defs><style>.cls-1{fill:#8cc63f;}.cls-2{fill:#fff;}</style></defs><g id="Layer_2" data-name="Layer 2"><g id="Layer_27_copy_52" data-name="Layer 27 copy 52"><circle class="cls-1" cx="11" cy="11" r="11"/><path class="cls-2" d="M6.6,5.5A1.1,1.1,0,0,0,5.5,6.6V7.7a1.1,1.1,0,0,0,2.2,0V6.6A1.1,1.1,0,0,0,6.6,5.5Z"/><path class="cls-2" d="M15.53,5.5a1.1,1.1,0,0,0-1.1,1.1V7.7a1.1,1.1,0,0,0,2.2,0V6.6A1.1,1.1,0,0,0,15.53,5.5Z"/><path class="cls-2" d="M11,17a7.94,7.94,0,0,1-5.63-2.33.59.59,0,0,1,0-.83.57.57,0,0,1,.83,0,6.81,6.81,0,0,0,9.6,0,.57.57,0,0,1,.83,0,.59.59,0,0,1,0,.83A7.94,7.94,0,0,1,11,17Z"/></g></g></svg>