<svg xmlns="http://www.w3.org/2000/svg" viewBox="0 0 40 40"><defs><style>.cls-1{fill:#29abe2;}.cls-2{fill:none;stroke:#fff;stroke-miterlimit:10;stroke-width:2px;}</style></defs><g id="Layer_2" data-name="Layer 2"><g id="Layer_27_copy_43" data-name="Layer 27 copy 43"><rect class="cls-1" width="40" height="40"/><path class="cls-2" d="M13.75,9.85c-2.37,0-4.82,1.31-6.25,2"/><path class="cls-2" d="M32.5,11.88c-1.43.72-3.88,2-6.25,2s-4.82-1.31-6.25-2-3.88-2-6.25-2"/><path class="cls-2" d="M13.75,18c-2.37,0-4.82,1.31-6.25,2"/><path class="cls-2" d="M32.5,20c-1.43.72-3.88,2-6.25,2S21.43,20.72,20,20s-3.88-2-6.25-2"/><path class="cls-2" d="M13.75,26.09c-2.37,0-4.82,1.31-6.25,2"/><path class="cls-2" d="M32.5,28.12c-1.43.72-3.88,2-6.25,2s-4.82-1.31-6.25-2-3.88-2-6.25-2"/></g></g></svg>