<svg xmlns="http://www.w3.org/2000/svg" viewBox="0 0 40 40"><defs><style>.cls-1{fill:#2e3192;}.cls-2{fill:#fff;}</style></defs><g id="Layer_2" data-name="Layer 2"><g id="Layer_27_copy_52" data-name="Layer 27 copy 52"><rect class="cls-1" width="40" height="40"/><circle class="cls-2" cx="20" cy="19.16" r="1.93"/><path class="cls-2" d="M18.12,15.89,13.7,8.25A12.58,12.58,0,0,0,7.4,19.16h8.83A3.77,3.77,0,0,1,18.12,15.89Z"/><path class="cls-2" d="M21.88,22.42a3.72,3.72,0,0,1-3.76,0L13.7,30.07a12.65,12.65,0,0,0,12.6,0Z"/><path class="cls-2" d="M23.77,19.16H32.6A12.58,12.58,0,0,0,26.3,8.25l-4.42,7.64A3.77,3.77,0,0,1,23.77,19.16Z"/></g></g></svg>