<svg xmlns="http://www.w3.org/2000/svg" viewBox="0 0 22 22"><defs><style>.cls-1{fill:#f7931e;}.cls-2{fill:#fff;}</style></defs><g id="Layer_2" data-name="Layer 2"><g id="Layer_27_copy_52" data-name="Layer 27 copy 52"><circle class="cls-1" cx="11" cy="11" r="11"/><path class="cls-2" d="M15.53,15.84H6.77a.44.44,0,0,1,0-.88h8.76a.44.44,0,1,1,0,.88Z"/><path class="cls-2" d="M6.6,5.5A1.1,1.1,0,0,0,5.5,6.6V7.7a1.1,1.1,0,0,0,2.2,0V6.6A1.1,1.1,0,0,0,6.6,5.5Z"/><path class="cls-2" d="M15.53,5.5a1.1,1.1,0,0,0-1.1,1.1V7.7a1.1,1.1,0,0,0,2.2,0V6.6A1.1,1.1,0,0,0,15.53,5.5Z"/></g></g></svg>