<svg xmlns="http://www.w3.org/2000/svg" viewBox="0 0 40 40"><defs><style>.cls-1{fill:#8cc63f;}.cls-2{fill:#fff;}</style></defs><g id="Layer_2" data-name="Layer 2"><g id="Layer_27_copy_52" data-name="Layer 27 copy 52"><rect class="cls-1" width="40" height="40"/><path class="cls-2" d="M33.36,22.89,22.43,19.3,18,20.72C17.27,19.1,11.61,6.6,11.61,6.6L14,17.86,17.43,21c-1.06,1.4-9,12.55-9,12.55L17,25.91s.83-3.75,1-4.59C19.7,21.54,33.36,22.89,33.36,22.89ZM17.78,21Z"/><path class="cls-2" d="M7.78,34.25c-.34-.31,6.44-10.36,8.44-13.1l-2.86-2.63a.87.87,0,0,1-.28-.48S10.89,5.89,11.33,5.75s5.75,10.76,7.12,13.87l3.71-1.18a.94.94,0,0,1,.55,0s11.62,4.18,11.53,4.63-12.2-.4-15.57-.77l-.84,3.8a.88.88,0,0,1-.28.47S8,34.4,7.78,34.25Zm8.7-10.39L13.9,27.43l2.23-2Zm4.4-3.13,4.39.45-2.85-.93Zm-6.1-3.34,1.2,1.1c-.52-1.17-1.16-2.59-1.81-4Z"/><circle class="cls-1" cx="17.78" cy="21.03" r="3"/><circle class="cls-2" cx="17.78" cy="21.03" r="1.71"/></g></g></svg>